<svg xmlns="http://www.w3.org/2000/svg" viewBox="0 0 24 24" role="img" aria-labelledby="title">
  <title>Threads</title>
  <path fill="currentColor" d="M12.186 24h-.007c-3.581-.024-6.334-1.205-8.184-3.509C2.35 18.44 1.5 15.586 1.472 12.01v-.017c.03-3.579.879-6.433 2.524-8.484C5.846 1.205 8.6.024 12.18 0h.014c2.746.02 5.043.725 6.826 2.098 1.677 1.291 2.858 3.13 3.509 5.467l-2.04.569c-1.104-3.96-3.895-5.984-8.304-6.015-2.91.022-5.11.936-6.54 2.717-1.35 1.685-2.047 4.096-2.073 7.165.026 3.069.724 5.48 2.074 7.164 1.43 1.783 3.631 2.697 6.54 2.718 2.623-.019 4.358-.631 5.8-2.045 1.647-1.613 1.618-3.593 1.09-4.798-.31-.707-.806-1.316-1.477-1.812-.169 1.203-.523 2.188-1.064 2.933-.952 1.308-2.419 1.999-4.244 1.999-1.386 0-2.642-.338-3.537-.952-1.041-.715-1.614-1.75-1.614-2.915 0-1.122.547-2.142 1.541-2.874.95-.698 2.291-1.063 3.77-1.027 1.05.025 2.038.126 2.96.301-.122-.724-.369-1.29-.744-1.703-.514-.566-1.306-.861-2.354-.877-1.429-.022-2.341.392-3.062 1.386l-1.716-1.244c1.126-1.554 2.687-2.258 4.812-2.225 3.29.052 5.139 2.087 5.285 5.733.099.047.197.095.294.145 1.553.801 2.715 2.009 3.36 3.491.895 2.041.942 5.437-1.53 7.856-1.85 1.81-4.139 2.693-6.998 2.693Zm.515-9.863c-1.86 0-3.08.692-3.08 1.772 0 .957 1.08 1.637 2.625 1.637 2.115 0 3.223-.957 3.44-3.042-.96-.232-1.986-.353-3.067-.367Z"/>
</svg>
