<svg xmlns="http://www.w3.org/2000/svg" viewBox="0 0 24 24" role="img" aria-labelledby="title">
  <title>Instagram</title>
  <defs>
    <linearGradient id="ig" x1="2" y1="22" x2="22" y2="2" gradientUnits="userSpaceOnUse">
      <stop offset="0" stop-color="#FFDC80"/>
      <stop offset=".25" stop-color="#FCAF45"/>
      <stop offset=".45" stop-color="#F77737"/>
      <stop offset=".62" stop-color="#E1306C"/>
      <stop offset=".8" stop-color="#C13584"/>
      <stop offset="1" stop-color="#833AB4"/>
    </linearGradient>
  </defs>
  <rect x="2" y="2" width="20" height="20" rx="5.5" fill="url(#ig)"/>
  <path fill="#fff" d="M7.7 5.2h8.6c1.38 0 2.5 1.12 2.5 2.5v8.6c0 1.38-1.12 2.5-2.5 2.5H7.7a2.5 2.5 0 0 1-2.5-2.5V7.7c0-1.38 1.12-2.5 2.5-2.5Zm0 1.75a.75.75 0 0 0-.75.75v8.6c0 .41.34.75.75.75h8.6c.41 0 .75-.34.75-.75V7.7a.75.75 0 0 0-.75-.75H7.7Zm8.66 1.05a1.05 1.05 0 1 1 0 2.1 1.05 1.05 0 0 1 0-2.1ZM12 9a3 3 0 1 1 0 6 3 3 0 0 1 0-6Zm0 1.7a1.3 1.3 0 1 0 0 2.6 1.3 1.3 0 0 0 0-2.6Z"/>
</svg>
